<svg id="Layer_1" data-name="Layer 1" xmlns="http://www.w3.org/2000/svg" xmlns:xlink="http://www.w3.org/1999/xlink" viewBox="0 0 452.65 478.16"><defs><radialGradient id="radial-gradient" cx="960.61" cy="545.69" r="180.02" gradientTransform="matrix(1, 0, 0, -1, -733.33, 781.25)" gradientUnits="userSpaceOnUse"><stop offset="0" stop-opacity="0"/><stop offset="1" stop-color="#231f20"/></radialGradient><linearGradient id="linear-gradient" x1="955.25" y1="726.76" x2="955.25" y2="645.64" gradientTransform="matrix(1, 0, 0, -1, 0, 1082)" gradientUnits="userSpaceOnUse"><stop offset="0" stop-color="#b9e4f4"/><stop offset="0.23" stop-color="#86d4ee"/><stop offset="1" stop-color="#00afec"/></linearGradient><linearGradient id="linear-gradient-2" x1="878.46" y1="360.61" x2="1022.28" y2="360.61" gradientTransform="matrix(1, 0, 0, -1, -733.33, 781.25)" xlink:href="#linear-gradient"/><radialGradient id="radial-gradient-2" cx="950.37" cy="128.93" r="72.09" gradientTransform="matrix(1, 0, 0, -0.32, -733.33, 465)" gradientUnits="userSpaceOnUse"><stop offset="0" stop-color="#fff"/><stop offset="1" stop-color="#231f20"/></radialGradient></defs><title>background</title><rect width="452.48" height="478.16" style="fill:#231f20"/><rect x="23.77" y="58.29" width="397.27" height="318.48" rx="21.26" style="fill:#502769"/><rect x="28.65" y="76.32" width="397.27" height="318.48" rx="21.26" style="opacity:0.30000001192092896;isolation:isolate;fill:url(#radial-gradient)"/><rect x="0.17" y="48.47" width="32.35" height="399.63" style="fill:#b97733"/><rect x="421.04" y="52.44" width="31.6" height="395.67" style="fill:#b97733"/><rect x="0.17" y="39.23" width="452.48" height="46.74" style="fill:#b97733"/><path d="M1154.8,417.48l2.22-.77,3.3-1.1,3.2,2.31v-.27l3.08,7.5,2,32.45-3.56,3.78v3.19a74.76,74.76,0,0,0-5.12-8.38s-1.44-2.84-5.93-4.56l-3.34,2Z" transform="translate(-733.33 -300.75)" style="fill:#231f20;opacity:0.20000000298023224;isolation:isolate"/><polygon points="432.51 117.83 434.47 150.29 430.91 154.06 429.42 110.3 432.51 117.83" style="fill:#8b3691"/><path d="M1162.78,411.34l1.41,46.66a74.63,74.63,0,0,0-5.12-8.37c-.3-.44.49-40.62.49-40.62Z" transform="translate(-733.33 -300.75)" style="fill:#e38f34"/><path d="M1159.1,449.63s-1.44-2.84-5.93-4.56l3.12-35,3.3-1.1Z" transform="translate(-733.33 -300.75)" style="fill:#8b3691"/><polygon points="419.81 144.32 416.47 146.29 420.71 110.13 422.94 109.36 419.81 144.32" style="fill:#e38f34"/><polygon points="416.55 132.78 413.19 136.97 426.85 80.8 428.98 80.47 428.56 85.78 435.55 134.96 431.25 131.19 431.26 131.3 424.82 127.57 416.5 133.03 416.55 132.78" style="fill:#231f20;opacity:0.20000000298023224;isolation:isolate"/><polygon points="429.21 78.76 436.74 131.65 431.72 127.25 429.21 78.76" style="fill:#8b3691"/><polygon points="429.22 77.82 432.45 127.99 425.47 123.95 429.22 77.82" style="fill:#e38f34"/><polygon points="425.47 123.95 416.68 129.72 427.04 77.49 429.16 77.17 425.47 123.95" style="fill:#8b3691"/><polygon points="416.97 129.18 413.37 133.66 427.04 77.49 416.97 129.18" style="fill:#e38f34"/><path d="M1161.46,350s25.1,98.22-78.93,119.68-135.3-70.28-135.3-70.28l6.82-2s39.65,90.14,129.1,61.56C1106.93,451.4,1145.28,456.49,1161.46,350Z" transform="translate(-733.33 -300.75)" style="fill:#8b3691"/><path d="M1160.22,347.56s23.93,98.21-75.24,119.68S954.1,397.43,954.1,397.43l8.47-2.46s37.74,90.18,123,61.56C1108.25,448.93,1144.8,454,1160.22,347.56Z" transform="translate(-733.33 -300.75)" style="fill:#e38f34"/><path d="M1160.29,345.67s23.3,95.25-73.29,116.07S962.52,395,962.52,395l5.2-3.32s36.81,87.42,119.86,59.71C1109.66,444,1145.26,448.93,1160.29,345.67Z" transform="translate(-733.33 -300.75)" style="fill:#8b3691"/><path d="M1159.1,349s22.29,89-69.68,108.12c-98.24,20.44-121.74-65.5-121.74-65.5l7.86-1.42s35.09,78.34,114.25,53.51C1110.88,437.15,1144.81,441.56,1159.1,349Z" transform="translate(-733.33 -300.75)" style="fill:#e38f34"/><path d="M1159.2,347.39s21.63,82.76-68,100.88-109-46.77-109-46.77l-1.75-14.15s34.18,76,111.29,51.89C1112.19,432.84,1145.25,437.15,1159.2,347.39Z" transform="translate(-733.33 -300.75)" style="fill:#8b3691"/><path d="M1160.45,346.21s21.79,77.48-68.52,94.42-116.35-50.4-116.35-50.4l4.82-6.61s34.42,71.11,112.07,48.53C1113.1,426.15,1146.4,430.21,1160.45,346.21Z" transform="translate(-733.33 -300.75)" style="fill:#e38f34"/><path d="M1160.51,344.72s21.22,75.15-66.75,91.58S980.4,383.62,980.4,383.62l4.73-2.62s33.52,69,109.16,47.1C1114.4,422.29,1146.82,426.15,1160.51,344.72Z" transform="translate(-733.33 -300.75)" style="fill:#8b3691"/><path d="M1159.46,347.38s18.78,69.56-65.06,84.28S985.1,381,985.1,381l7.17-1.12s32.83,56.19,104.83,44.27C1116.65,420.88,1164.1,414.88,1159.46,347.38Z" transform="translate(-733.33 -300.75)" style="fill:#e38f34"/><path d="M1150.62,370a1.77,1.77,0,0,1,0-.46,2.6,2.6,0,0,1,.45-1.47,1.82,1.82,0,0,1,0-.33,2.48,2.48,0,0,1,.44-1.41h0a3.79,3.79,0,0,1,1.57-3.11v-.1c.06-2.29,3.73-2.72,4.29-2.63,2.6.42,5.23,2,8.06,6.08.17.24,1.39,2.61,1.18,3.7,1.33,2.61,1.86,4.62,1.3,5.86h0c.2.91.13,1.66-.53,1.77h0a.89.89,0,0,1-.75,1h0a1.66,1.66,0,0,1-.09.63c-.39.84-.63.7-1.92-.1-2.35-1.44-3.67-4.29-7-5.36-2.18-.68-1.76-.5-4.41-.29-.83.06-3.09.41-3.08-1.85A2.8,2.8,0,0,1,1150.62,370Z" transform="translate(-733.33 -300.75)" style="fill:#231f20;opacity:0.20000000298023224;isolation:isolate"/><path d="M1156.26,362a6.5,6.5,0,0,1,3.6.28c2.51.72,2.34,3.31,4.07,4.32,1,.56,1.62,2.17,2.26,2.06,1.43-.26-.47-3.95-.68-4.25-2.83-4.1-5.46-5.66-8.06-6.08-.56-.09-4.23.34-4.29,2.63C1153.1,362.59,1155.64,362.05,1156.26,362Z" transform="translate(-733.33 -300.75)" style="fill:#8b3691"/><path d="M1155.72,364.27c2.65-.21,2.65-.21,4.82.47,3.39,1.07,3.23,4.63,5.58,6.07,1.29.79,1.49,4,1.87,3.15.62-1.37-.08-3.64-1.71-6.64-2.29-4.2-5.78-6.6-9.26-7.19-2.18-.37-5.4.88-5.42,4C1151.59,366.42,1154.89,364.34,1155.72,364.27Z" transform="translate(-733.33 -300.75)" style="fill:#e38f34"/><path d="M1155,367a8,8,0,0,1,4.45.44c3.13,1,3,4.28,5.16,5.62,1.19.73,2.05,2.8,2.84,2.67,1.76-.28-.69-5-1-5.42-3.62-5.3-6.9-7.35-10.12-8-.71-.13-5.22.32-5.23,3.23C1151.15,367.66,1154.25,367,1155,367Z" transform="translate(-733.33 -300.75)" style="fill:#8b3691"/><path d="M1154.23,370.15c2.57-.24,2.57-.24,4.66.37,3.25,1,3,4.31,5.28,5.63,1.24.72,2.82.85,3.2.05.61-1.3-2-4.71-2.32-5.08-2.73-3.47-6.84-6.26-10-6.47-.73,0-4.28-.28-4.35,2.69C1150.69,369.51,1153.43,370.26,1154.23,370.15Z" transform="translate(-733.33 -300.75)" style="fill:#e38f34"/><path d="M1153.19,371.59c2.65-.21,2.23-.38,4.41.3,3.38,1.07,4.7,3.92,7.05,5.36,1.29.79,1.53.94,1.92.09.61-1.36-1.84-4.79-2.15-5.18-2.89-3.73-6.42-4.84-9.91-5.49-.76-.14-4.38-.08-4.4,3.08C1150.1,372,1152.36,371.66,1153.19,371.59Z" transform="translate(-733.33 -300.75)" style="fill:#8b3691"/><path d="M767.3,413.21l-2.2-.77-3.29-1.1-3.21,2.31v-.27l-3.08,7.53-2,32.46,3.58,3.78.06,3.19a74.76,74.76,0,0,1,5.12-8.38s1.44-2.84,5.93-4.55l3.34,2Z" transform="translate(-733.33 -300.75)" style="fill:#231f20;opacity:0.20000000298023224;isolation:isolate"/><polygon points="22.93 113.57 20.97 146.02 24.52 149.79 26.01 106.03 22.93 113.57" style="fill:#8b3691"/><path d="M759.31,407.07l-1.4,46.66a74.63,74.63,0,0,1,5.12-8.37c.3-.44-.49-40.62-.49-40.62Z" transform="translate(-733.33 -300.75)" style="fill:#e38f34"/><path d="M763,445.36s1.44-2.84,5.93-4.56l-3.13-35-3.29-1.1Z" transform="translate(-733.33 -300.75)" style="fill:#8b3691"/><polygon points="35.63 140.05 38.97 142.02 34.73 105.86 32.5 105.09 35.63 140.05" style="fill:#e38f34"/><polygon points="38.89 128.51 42.25 132.7 28.58 76.53 26.46 76.2 26.88 81.51 19.88 130.69 24.18 126.92 24.18 127.03 30.62 123.3 38.94 128.76 38.89 128.51" style="fill:#231f20;opacity:0.20000000298023224;isolation:isolate"/><polygon points="26.22 74.49 18.7 127.39 23.72 122.98 26.22 74.49" style="fill:#8b3691"/><polygon points="26.22 73.55 22.99 123.72 29.97 119.68 26.22 73.55" style="fill:#e38f34"/><polygon points="29.97 119.68 38.75 125.46 28.4 73.22 26.27 72.9 29.97 119.68" style="fill:#8b3691"/><polygon points="38.47 124.91 42.06 129.39 28.4 73.22 38.47 124.91" style="fill:#e38f34"/><path d="M760.63,345.75S735.53,444,839.57,465.43s135.29-70.28,135.29-70.28l-6.76-2S928.45,483.29,839,454.71C815.16,447.15,776.82,452.22,760.63,345.75Z" transform="translate(-733.33 -300.75)" style="fill:#8b3691"/><path d="M761.87,343.29S738,441.5,837.1,463s131-69.82,131-69.82l-8.48-2.46s-37.79,90.13-123,61.56C813.85,444.66,777.3,449.76,761.87,343.29Z" transform="translate(-733.33 -300.75)" style="fill:#e38f34"/><path d="M761.81,341.4S738.5,436.65,835.1,457.47,959.57,390.7,959.57,390.7l-5.19-3.32s-36.81,87.42-119.86,59.71C812.44,439.72,776.83,444.66,761.81,341.4Z" transform="translate(-733.33 -300.75)" style="fill:#8b3691"/><path d="M763,344.76s-22.3,89,69.67,108.12c98.24,20.44,121.75-65.5,121.75-65.5L946.51,386s-35.08,78.33-114.25,53.5C811.22,432.86,777.28,437.29,763,344.76Z" transform="translate(-733.33 -300.75)" style="fill:#e38f34"/><path d="M762.9,343.15s-21.64,82.78,68,100.88,109-46.77,109-46.77l1.71-14.15s-34.17,76-111.29,51.89C809.91,428.57,776.85,432.86,762.9,343.15Z" transform="translate(-733.33 -300.75)" style="fill:#8b3691"/><path d="M761.65,341.94s-21.79,77.48,68.52,94.42S946.51,386,946.51,386l-4.82-6.62s-34.41,71.11-112.07,48.56C809,421.92,775.7,425.94,761.65,341.94Z" transform="translate(-733.33 -300.75)" style="fill:#e38f34"/><path d="M761.59,340.45S740.36,415.6,828.33,432s113.36-52.68,113.36-52.68L937,376.73s-33.52,69-109.16,47.1C807.7,418,775.27,421.92,761.59,340.45Z" transform="translate(-733.33 -300.75)" style="fill:#8b3691"/><path d="M762.64,343.15s-18.79,69.56,65.06,84.28S937,376.77,937,376.77l-7.16-1.12S897,431.84,825,419.9C805.44,416.61,758,410.61,762.64,343.15Z" transform="translate(-733.33 -300.75)" style="fill:#e38f34"/><path d="M771.48,365.68a3.53,3.53,0,0,0,0-.46,2.65,2.65,0,0,0-.38-1.47,1.82,1.82,0,0,0,0-.33,2.55,2.55,0,0,0-.44-1.41h0a3.78,3.78,0,0,0-1.56-3.11v-.1c-.06-2.29-3.73-2.72-4.3-2.63-2.59.42-5.22,2-8,6.08-.17.24-1.39,2.61-1.18,3.71-1.33,2.6-1.87,4.61-1.31,5.85h0c-.19.91-.13,1.66.54,1.77h0a1.06,1.06,0,0,0,.09.5,1,1,0,0,0,.71.49,1.34,1.34,0,0,0,.09.63c.38.84.63.7,1.92-.1,2.35-1.44,3.66-4.29,7-5.36,2.17-.68,1.76-.5,4.41-.29.83.06,3.09.41,3.08-1.85A2.87,2.87,0,0,0,771.48,365.68Z" transform="translate(-733.33 -300.75)" style="fill:#231f20;opacity:0.20000000298023224;isolation:isolate"/><path d="M765.84,357.72a6.5,6.5,0,0,0-3.6.28c-2.52.72-2.34,3.31-4.08,4.32-1,.56-1.62,2.17-2.25,2.06-1.43-.26.47-3.95.68-4.25,2.83-4.1,5.45-5.66,8-6.08.57-.09,4.23.34,4.29,2.63C769,358.32,766.46,357.78,765.84,357.72Z" transform="translate(-733.33 -300.75)" style="fill:#8b3691"/><path d="M766.38,360c-2.66-.21-2.66-.21-4.83.47-3.38,1.07-3.22,4.63-5.57,6.07-1.29.79-1.5,4-1.88,3.15-.61-1.37.08-3.64,1.72-6.64,2.29-4.2,5.77-6.6,9.26-7.19,2.18-.37,5.4.88,5.42,4C770.51,362.15,767.21,360.07,766.38,360Z" transform="translate(-733.33 -300.75)" style="fill:#e38f34"/><path d="M767.1,362.72a8,8,0,0,0-4.45.44c-3.12,1-3,4.28-5.15,5.62-1.19.73-2.06,2.8-2.84,2.68-1.76-.29.69-5,1-5.43,3.61-5.3,6.9-7.35,10.12-8,.7-.13,5.22.32,5.23,3.23C770.94,363.39,767.85,362.78,767.1,362.72Z" transform="translate(-733.33 -300.75)" style="fill:#8b3691"/><path d="M767.86,365.91c-2.56-.24-2.56-.24-4.65.37-3.26,1-3,4.31-5.29,5.63-1.23.72-2.81.85-3.19,0-.62-1.3,2-4.71,2.32-5.08,2.73-3.47,6.83-6.26,10-6.47.72,0,4.28-.28,4.35,2.69C771.41,365.24,768.67,366,767.86,365.91Z" transform="translate(-733.33 -300.75)" style="fill:#e38f34"/><path d="M768.91,367.32c-2.65-.2-2.24-.38-4.41.3-3.39,1.07-4.7,3.92-7,5.36-1.29.79-1.54.94-1.92.09-.61-1.36,1.84-4.79,2.15-5.18,2.89-3.73,6.42-4.84,9.91-5.49.76-.14,4.38-.08,4.4,3.08C772,367.74,769.74,367.39,768.91,367.32Z" transform="translate(-733.33 -300.75)" style="fill:#8b3691"/><path d="M1024,403.8c-13.84-6.18-28.69-7.6-43.51-9.18a349.57,349.57,0,0,0-61.72-1c-11.16.8-22.52,1.28-33,6.1-5.78.22-10.34,3.91-16,5.85L870.5,380c-.66-9.42.29-10.9,10.57-14.44,18.8-6.48,38.18-9.33,58.06-9.69a309.7,309.7,0,0,1,56,3.8c13.6,2.25,26.49,6.87,39.19,12.17,6.88,2.88,5.84,8.2,5.27,13.64-.25,8.24-.49,16.48-.75,25.43C1033.61,407.83,1029.1,405,1024,403.8Z" transform="translate(-733.33 -300.75)" style="fill:#fff;stroke:#444545;stroke-miterlimit:10;stroke-width:2px"/><path d="M1075.93,425.81a92.34,92.34,0,0,0-14.55-7.77c-8.59-3.5-17.7-5.16-26.81-6.75-.24,8.25-.49,26.49-.75,35.44.26-9,.51-43.19.75-51.44.57-5.43,1.62-10.75-5.26-13.63-12.7-5.31-25.59-9.92-39.2-12.17a307.9,307.9,0,0,0-56-3.8c-19.88.36-39.26,3.21-58.05,9.69-10.29,3.54-11.23,5-10.57,14.43-.09,2.79-.17,8.42-.25,15-14.51,1.47-28.79,3.76-42.34,12.37,10.13,1.88,19.56,2.26,27.86,6.73-8.88,7.82-16.84,27.11-21.74,37.88l.45.47c12.87-6.94,26.45-11.49,41.12-12.62,4.59-.36,9.22.36,13.81-.75,2.76-.66,3.3-1.87,2-4.13-1.81-3.11-3.72-6.17-5.59-9.24,10.48-4.82,28.84-9.3,40-10.1a274.84,274.84,0,0,1,54.71,1c14.54,1.55,28.09,6.3,43.51,13.19-1.59,2.91-4.31,5-5.8,8-2.45,5-2.36,5.65,3.07,6.07,18.24,1.42,35.53,5.79,51,16l.76-.67c-3.44-11.12-11.56-29-19.39-37.46C1057.42,427.26,1066.84,427.67,1075.93,425.81Z" transform="translate(-733.33 -300.75)" style="fill:#231f20;opacity:0.20000000298023224;isolation:isolate"/><path d="M1024.42,429.27c-13.84-6.18-28.68-7.6-43.51-9.18a348.5,348.5,0,0,0-61.71-1c-11.17.79-22.53,1.27-33,6.09-5.78.22-10.34,3.91-16.05,5.85.26-8.77.51-43.18.75-51.58-.65-9.42.29-10.9,10.58-14.44,18.79-6.48,38.17-9.33,58-9.69a309.7,309.7,0,0,1,56,3.8c13.6,2.26,26.5,6.87,39.2,12.17,6.88,2.88,5.83,8.2,5.26,13.64-.24,8.24-.49,42.48-.75,51.43C1034.1,433.3,1029.58,430.51,1024.42,429.27Z" transform="translate(-733.33 -300.75)" style="stroke:#444545;stroke-miterlimit:10;stroke-width:2px;fill:url(#linear-gradient)"/><path d="M1024.42,429.27c5.16,1.24,9.63,4,14.81,7.12.26-8.95.51-27.19.75-35.43,9.1,1.58,18.22,3.24,26.8,6.75a91.14,91.14,0,0,1,14.56,7.76c-9.1,1.86-18.51,1.45-27.26,5.74,7.83,8.45,15.94,26.33,19.38,37.45l-.76.67c-15.48-10.19-32.77-14.56-51-16-5.43-.42-5.52-1.06-3.07-6.08C1020.1,434.23,1022.83,432.15,1024.42,429.27Z" transform="translate(-733.33 -300.75)" style="fill:#444545"/><path d="M870.88,394.48c-.24,8.4-.49,27.81-.75,36.58,5.71-1.94,10.27-5.63,16-5.85,1.88,3.08,3.79,6.13,5.6,9.24,1.32,2.26.77,3.47-2,4.14-4.59,1.1-9.22.39-13.81.74C861.3,440.46,847.71,445,834.85,452l-.46-.47c4.91-10.77,12.86-30.05,21.75-37.88-8.31-4.46-17.73-4.84-27.86-6.72C841.93,398.21,856.29,396,870.88,394.48Z" transform="translate(-733.33 -300.75)" style="fill:#444545"/><path d="M1031.45,373.73c-12.11-4.51-24.4-8.43-37.37-10.35a330,330,0,0,0-53.39-3.23c-19,.3-37.43,2.73-55.34,8.24-9.81,3-10.71,4.27-10.08,12.28-.24,7.15-.48,36.43-.72,43.89,5.44-1.65,9.79-4.79,15.3-5,10-4.1,20.83-4.51,31.47-5.18a372.9,372.9,0,0,1,58.84.82c14.13,1.35,28.28,2.56,41.47,7.82,4.92,1.05,9.18,3.43,14.12,6.05.25-7.61.48-36.74.71-43.76C1037,380.71,1038,376.15,1031.45,373.73Z" transform="translate(-733.33 -300.75)" style="fill:#231f20;opacity:0.20000000298023224;isolation:isolate"/><path d="M869.69,409v24s12.15-6.15,13.64-6,4.29,6.8,4.29,6.8l-23.93,5,.81-41.19H869Z" transform="translate(-733.33 -300.75)" style="opacity:0.20000000298023224;isolation:isolate"/><path d="M1040.55,414v24s-12.16-6.15-13.64-6-4.3,6.8-4.3,6.8l23.94,5-.82-41.19h-4.46Z" transform="translate(-733.33 -300.75)" style="opacity:0.20000000298023224;isolation:isolate"/><g style="opacity:0.20000000298023224"><path d="M875.67,404.5c2.59,2.55.87,7.37-.55,9.66a11.82,11.82,0,0,1-9.62,5.76c-2.68,0-6-1.76-8-5.33-5.18-9.24,0-22.13,5.17-26.84,2.5-2.29,5.14-3.64,7.44-3.07a9.27,9.27,0,0,1,4.28,2.19,5,5,0,0,1,1.17,4.28,52.48,52.48,0,0,0-.23,5.46c0,.43-.25.86-1,.76-1.49-.19-3-1.25-3.15-3.89-.2-2.8.64-6.25-1.06-6.84-2.1-.73-8.82,6.66-10.15,15.63-1.3,8.78,2.74,15.09,6,15.7,4.23.8,7.79-4.58,8.66-13.1C874.6,404.26,875.16,404,875.67,404.5Z" transform="translate(-733.33 -300.75)" style="fill:#231f20"/><path d="M894.9,408.82c-4.15,1.47-6.28-1-6.28-5.61,0-5.16,2.84-11.7,1.85-11.84s-5.52,5.17-6.75,10.76a53.63,53.63,0,0,0-1.28,10.78c0,.49-.33.73-.76.53-1.12-.51-2.13-1.61-2.25-4.82-.2-5.35,4.43-26.06,7.37-32.4.31-.75.9-.89,1.37-.41,1.19,1.13,1.78,3.56.71,7.26-.67,2.35-2.2,7.18-3.29,11.17,1.46-2.68,3.71-5.23,5.2-5.57a3.43,3.43,0,0,1,3.84,3,3.27,3.27,0,0,1-.09,1.32c-.47,2.46-1.78,6.8-2.07,9.65-.31,3.17.77,5.3,2.57,4.57,2-.81,3.62-5.14,4.24-8.71a.54.54,0,0,1,.56-.5.57.57,0,0,1,.35.16c.43.43.74,1.45.43,3.12C900.1,404.43,897.81,407.8,894.9,408.82Z" transform="translate(-733.33 -300.75)" style="fill:#231f20"/><path d="M903.59,405.78c-3.62.86-4.89-2.6-4.77-6.11a45.1,45.1,0,0,1,3.53-14.44.92.92,0,0,1,1.15-.58,1.19,1.19,0,0,1,.25.13c1.65,1.25,2,3.5.85,6.79a41.39,41.39,0,0,0-2,8.27c-.36,2.66.35,4.35,1.53,4.08,2-.44,3.78-4.63,5.45-9.6,2-5.81,2.72-9.57,4-12.08.38-.82.75-1,1.3-.63,1,.69,2,2.74,1.25,5.48-.65,2.46-2.39,6.78-2.94,9.55-.62,3.11.13,5.08,1.93,4.52,2.09-.65,3.91-4.48,5.19-8.36.16-.5.62-.63.93-.26a4.21,4.21,0,0,1,.22,3.19c-.89,3.07-3.44,6.29-6.41,7-3.28.85-5.14-.74-5.5-3.66C908.38,401.89,906.44,405.15,903.59,405.78Z" transform="translate(-733.33 -300.75)" style="fill:#231f20"/><path d="M933.54,381c1.5,1.88-.26,4.86-.86,7.71-.11.63-.3.81-1,.59-1.38-.36-2.4-1.71-2-4.06.27-1.87,1.52-4.29.67-4.7-1-.51-4.63,3.41-6.08,8.36-1.79,6.12.26,10,3.28,9.4,4.3-.8,7.33-5.38,9-8.84a.54.54,0,0,1,1-.1,4.4,4.4,0,0,1-.48,3.12,13.86,13.86,0,0,1-9,7.16c-6.44,1.38-10.15-4.07-8.08-11.14s7.18-10.7,10.2-9.7A6.76,6.76,0,0,1,933.54,381Z" transform="translate(-733.33 -300.75)" style="fill:#231f20"/><path d="M948.57,375.34c2-.87,3.48-.23,4.78,1.76a4.51,4.51,0,0,1-.64,5.94,19.42,19.42,0,0,1-7.05,4.82c.7,4.06,2.5,6.72,4.48,6.71,2.14,0,4.65-4.12,6-7.35.27-.62.75-.71,1.06-.13a3.61,3.61,0,0,1-.4,3.1c-1.11,2.19-3.21,5.56-7.29,5.95-3.6.35-7-2.12-7.83-8.78-.12-.89,0-1.06.94-1.49,6.4-2.91,9.66-7.55,8.7-8.74-.67-.84-3.11-.06-5.79,2.32-3.8,3.32-5.73,8-8.23,17.77-.09.42-.48.59-.91.25-.9-.71-1.43-2.25-.94-5.43.74-4.73,7.54-22.38,12.14-28.94.46-.65,1-.76,1.46-.19,1,1.41,1.05,3.41-1,7.29-1.15,2.18-3,5.92-4.15,8.54A13.12,13.12,0,0,1,948.57,375.34Z" transform="translate(-733.33 -300.75)" style="fill:#231f20"/><path d="M968.37,370.42c-.14-.59,0-.9.77-.87,4.16.27,7.53-1.16,11.5-.83s6.5,2.73,7.82,6.54c3.3,9.39-10.55,21.12-25.53,23.19a3.31,3.31,0,0,1-3.33-.93,12.18,12.18,0,0,1-1.9-2.55c-.79-1.48-1-2.31.66-5.45,2.4-4.56,8.4-11.79,13.43-16.26A4.39,4.39,0,0,1,968.37,370.42Zm4,8c-3.76,4-9.46,10-11.79,14.42-1,2-.78,2.81.92,2.51,15.51-2.87,26.32-15.1,24-20.67-1.35-3.31-6.27-1.63-10.6-1.29.07,1.29-.66,3.05-2.53,5Z" transform="translate(-733.33 -300.75)" style="fill:#231f20"/><path d="M983.33,403.15c-3.64-1.22-2.86-4.94-.84-8a46.21,46.21,0,0,1,11-10.75.93.93,0,0,1,1.31.11,1,1,0,0,1,.16.26c.77,2-.2,4.14-3,6.43a42.89,42.89,0,0,0-6.24,6.18c-1.77,2.15-2.07,4-.89,4.43,2,.7,5.84-2,10-5.45,4.91-4,7.64-6.9,10.12-8.43.79-.51,1.21-.47,1.49.17.54,1.16.23,3.48-1.9,5.48-1.93,1.81-5.83,4.64-7.84,6.77-2.25,2.39-2.67,4.53-.78,5,2.21.58,5.92-1.78,9.18-4.49a.57.57,0,0,1,1,.29,4.3,4.3,0,0,1-1.55,2.91c-2.47,2.21-6.49,3.63-9.53,2.67-3.36-1.05-4.11-3.47-2.84-6.22C989.65,402.36,986.19,404.15,983.33,403.15Z" transform="translate(-733.33 -300.75)" style="fill:#231f20"/><path d="M1023.38,397.91c.29,2.49-2.91,4.12-5,6.29-.44.49-.71.55-1.25-.06-1-1.09-1.2-2.83.4-4.7,1.27-1.49,3.71-2.92,3.18-3.75-.65-1-6,.43-10,4-5,4.38-5.25,8.89-2.25,10.06,4.26,1.66,9.48-.68,12.89-2.78.42-.27.91-.11.91.45a4.48,4.48,0,0,1-2.16,2.43,14.61,14.61,0,0,1-12,1.3c-6.48-2.33-6.76-9.15-1-14.22s12.25-5.42,14.4-2.88A7.17,7.17,0,0,1,1023.38,397.91Z" transform="translate(-733.33 -300.75)" style="fill:#231f20"/><path d="M1040,401.29c2.33.39,3.26,1.76,3.33,4.23a4.56,4.56,0,0,1-3.85,4.84,20.87,20.87,0,0,1-9,.27c-1.6,3.94-1.46,7.28.33,8.38s6.47-1,9.47-3.05c.59-.4,1.07-.2,1,.48a3.64,3.64,0,0,1-2.07,2.48c-2.21,1.3-6,3.06-9.85,1.13-3.43-1.72-5.09-5.77-2.19-12.07.39-.84.55-1,1.67-.78,7.33,1,12.84-1.21,12.63-2.79-.14-1.11-2.77-1.8-6.49-1.21-5.24.78-9.57,3.85-17.16,11-.31.32-.75.24-.94-.29-.42-1.13-.05-2.77,2.14-5.28,3.27-3.73,19.08-15.41,26.83-18.59.77-.31,1.36-.07,1.42.65.14,1.81-.93,3.58-4.89,5.85-2.25,1.26-5.92,3.52-8.44,5.15A14.1,14.1,0,0,1,1040,401.29Z" transform="translate(-733.33 -300.75)" style="fill:#231f20"/></g><path d="M879.18,401.71c2.59,2.54.88,7.36-.55,9.65a11.79,11.79,0,0,1-9.61,5.76c-2.69,0-6-1.75-8-5.33-5.18-9.24,0-22.12,5.16-26.84,2.51-2.29,5.14-3.63,7.44-3.07a9.27,9.27,0,0,1,4.28,2.19,5,5,0,0,1,1.17,4.29,52.17,52.17,0,0,0-.23,5.45c0,.44-.25.87-1,.76-1.49-.19-3-1.25-3.14-3.89-.2-2.8.64-6.25-1.07-6.84-2.09-.72-8.81,6.66-10.15,15.63-1.3,8.78,2.74,15.09,6,15.71,4.23.8,7.79-4.59,8.66-13.11C878.1,401.46,878.68,401.22,879.18,401.71Z" transform="translate(-733.33 -300.75)" style="fill:#811728;stroke:#fff;stroke-miterlimit:10;stroke-width:2px"/><path d="M898.41,406c-4.15,1.46-6.27-1-6.28-5.61,0-5.17,2.84-11.71,1.85-11.84s-5.52,5.16-6.75,10.75A54,54,0,0,0,886,410.15c0,.5-.33.73-.75.53-1.13-.51-2.13-1.6-2.25-4.81-.2-5.35,4.42-26.07,7.36-32.41.31-.74.9-.89,1.37-.41,1.19,1.13,1.78,3.57.72,7.27-.68,2.34-2.2,7.18-3.3,11.16,1.46-2.68,3.71-5.22,5.2-5.57a3.43,3.43,0,0,1,3.8,4.24c-.48,2.46-1.79,6.8-2.07,9.66-.32,3.17.76,5.3,2.56,4.56,2-.81,3.62-5.14,4.24-8.7a.53.53,0,0,1,.55-.51.62.62,0,0,1,.36.16c.43.43.74,1.45.43,3.13C903.57,401.63,901.32,405,898.41,406Z" transform="translate(-733.33 -300.75)" style="fill:#811728;stroke:#fff;stroke-miterlimit:10;stroke-width:2px"/><path d="M907.1,403c-3.61.86-4.88-2.59-4.77-6.1a44.83,44.83,0,0,1,3.53-14.45.92.92,0,0,1,1.15-.58,1.19,1.19,0,0,1,.25.13c1.65,1.25,2,3.5.85,6.79a41.39,41.39,0,0,0-2,8.27c-.36,2.66.35,4.35,1.53,4.09,2-.45,3.78-4.64,5.45-9.6,2-5.82,2.72-9.57,4-12.09.39-.82.75-1,1.31-.62,1,.68,2,2.74,1.24,5.47-.65,2.47-2.39,6.78-2.94,9.56-.62,3.1.13,5.07,1.93,4.52,2.09-.65,3.92-4.48,5.19-8.37.16-.49.62-.63.93-.26a4.21,4.21,0,0,1,.22,3.19c-.89,3.07-3.44,6.29-6.41,7.06-3.28.84-5.14-.75-5.5-3.66C911.9,399.09,910,402.31,907.1,403Z" transform="translate(-733.33 -300.75)" style="fill:#811728;stroke:#fff;stroke-miterlimit:10;stroke-width:2px"/><path d="M937.1,378.24c1.49,1.89-.26,4.86-.87,7.71-.11.63-.29.82-1,.59-1.38-.36-2.4-1.7-2.06-4.05.27-1.88,1.52-4.29.67-4.71s-4.63,3.41-6.08,8.36c-1.79,6.13.26,10,3.29,9.41,4.3-.81,7.32-5.39,9-8.85a.54.54,0,0,1,1-.1,4.4,4.4,0,0,1-.48,3.12,13.88,13.88,0,0,1-9,7.16c-6.44,1.39-10.15-4.07-8.09-11.14,2-6.91,7.18-10.69,10.21-9.7A6.86,6.86,0,0,1,937.1,378.24Z" transform="translate(-733.33 -300.75)" style="fill:#811728;stroke:#fff;stroke-miterlimit:10;stroke-width:2px"/><path d="M952.1,372.54c2-.87,3.48-.22,4.78,1.76a4.49,4.49,0,0,1-.64,5.94,19.24,19.24,0,0,1-7,4.83c.7,4.05,2.5,6.71,4.48,6.7,2.14,0,4.65-4.12,6-7.34.28-.63.75-.71,1.07-.13a3.66,3.66,0,0,1-.41,3.09c-1.11,2.2-3.21,5.57-7.28,6-3.61.34-7-2.13-7.84-8.79-.11-.88,0-1.05.95-1.49,6.39-2.91,9.65-7.55,8.7-8.74-.68-.84-3.12-.06-5.8,2.33-3.8,3.31-5.73,8-8.22,17.77-.1.42-.49.58-.91.25-.91-.72-1.44-2.26-.95-5.43.74-4.73,7.55-22.38,12.14-29,.46-.65,1-.76,1.46-.19,1,1.41,1,3.41-1,7.29-1.16,2.19-3,5.92-4.16,8.54A13.22,13.22,0,0,1,952.1,372.54Z" transform="translate(-733.33 -300.75)" style="fill:#811728;stroke:#fff;stroke-miterlimit:10;stroke-width:2px"/><path d="M971.89,367.62c-.15-.59,0-.9.76-.87,4.16.27,7.53-1.16,11.5-.82s6.5,2.72,7.82,6.53c3.31,9.39-10.54,21.13-25.53,23.19a3.29,3.29,0,0,1-3.33-.92,12.82,12.82,0,0,1-1.9-2.55c-.79-1.48-1-2.32.66-5.46,2.4-4.55,8.41-11.79,13.43-16.26A4.36,4.36,0,0,1,971.89,367.62Zm4,8c-3.76,4-9.45,10-11.78,14.42-1.06,2-.79,2.81.91,2.51,15.52-2.87,26.32-15.1,24-20.66-1.36-3.32-6.28-1.64-10.6-1.3.11,1.3-.62,3.05-2.49,5Z" transform="translate(-733.33 -300.75)" style="fill:#811728;stroke:#fff;stroke-miterlimit:10;stroke-width:2px"/><path d="M986.84,400.36c-3.63-1.22-2.85-4.95-.84-8a46.4,46.4,0,0,1,11-10.75.94.94,0,0,1,1.32.12,1.58,1.58,0,0,1,.15.24c.77,2-.2,4.15-3,6.43a41.91,41.91,0,0,0-6.23,6.19c-1.78,2.14-2.07,4-.9,4.42,2,.71,5.85-2,10-5.44,4.9-4,7.63-6.91,10.11-8.44.79-.5,1.22-.47,1.49.17.54,1.17.23,3.48-1.9,5.48-1.93,1.81-5.83,4.65-7.84,6.78-2.24,2.38-2.66,4.52-.77,5,2.2.58,5.91-1.78,9.17-4.49.42-.34.9-.21,1,.29a4.35,4.35,0,0,1-1.56,2.91c-2.47,2.21-6.49,3.63-9.53,2.68-3.35-1.06-4.11-3.47-2.84-6.23C993.17,399.56,989.71,401.32,986.84,400.36Z" transform="translate(-733.33 -300.75)" style="fill:#811728;stroke:#fff;stroke-miterlimit:10;stroke-width:2px"/><path d="M1026.89,395.15c.3,2.48-2.91,4.12-5,6.28-.45.49-.71.55-1.26-.06-1-1.09-1.2-2.83.4-4.7,1.27-1.49,3.72-2.91,3.19-3.75-.66-1-6,.43-10,4-5,4.38-5.25,8.88-2.26,10,4.26,1.67,9.48-.67,12.89-2.77.42-.27.91-.12.91.44a4.47,4.47,0,0,1-2.15,2.47,14.61,14.61,0,0,1-12,1.29c-6.48-2.33-6.76-9.15-1.05-14.22s12.25-5.42,14.4-2.87A7,7,0,0,1,1026.89,395.15Z" transform="translate(-733.33 -300.75)" style="fill:#811728;stroke:#fff;stroke-miterlimit:10;stroke-width:2px"/><path d="M1043.49,398.5c2.33.39,3.26,1.75,3.34,4.22a4.56,4.56,0,0,1-3.86,4.84,20.71,20.71,0,0,1-9,.28c-1.61,3.94-1.47,7.27.33,8.37s6.46-1,9.46-3c.59-.39,1.07-.2,1,.48a3.6,3.6,0,0,1-2.07,2.48c-2.21,1.3-6,3.07-9.85,1.13-3.43-1.72-5.09-5.76-2.19-12.07.39-.84.55-.94,1.67-.78,7.34,1,12.84-1.21,12.64-2.78-.15-1.12-2.78-1.8-6.5-1.22-5.24.79-9.56,3.85-17.15,11-.32.32-.76.25-.95-.28-.42-1.13,0-2.78,2.15-5.29,3.26-3.73,19.07-15.41,26.82-18.58.78-.31,1.36-.08,1.42.64.14,1.81-.93,3.58-4.89,5.85-2.25,1.27-5.92,3.53-8.44,5.15A14,14,0,0,1,1043.49,398.5Z" transform="translate(-733.33 -300.75)" style="fill:#811728;stroke:#fff;stroke-miterlimit:10;stroke-width:2px"/><path d="M879.18,401.71c2.59,2.54.88,7.36-.55,9.65a11.79,11.79,0,0,1-9.61,5.76c-2.69,0-6-1.75-8-5.33-5.18-9.24,0-22.12,5.16-26.84,2.51-2.29,5.14-3.63,7.44-3.07a9.27,9.27,0,0,1,4.28,2.19,5,5,0,0,1,1.17,4.29,52.17,52.17,0,0,0-.23,5.45c0,.44-.25.87-1,.76-1.49-.19-3-1.25-3.14-3.89-.2-2.8.64-6.25-1.07-6.84-2.09-.72-8.81,6.66-10.15,15.63-1.3,8.78,2.74,15.09,6,15.71,4.23.8,7.79-4.59,8.66-13.11C878.1,401.46,878.68,401.22,879.18,401.71Z" transform="translate(-733.33 -300.75)" style="fill:#e62144"/><path d="M898.41,406c-4.15,1.46-6.27-1-6.28-5.61,0-5.17,2.84-11.71,1.85-11.84s-5.52,5.16-6.75,10.75A54,54,0,0,0,886,410.15c0,.5-.33.73-.75.53-1.13-.51-2.13-1.6-2.25-4.81-.2-5.35,4.42-26.07,7.36-32.41.31-.74.9-.89,1.37-.41,1.19,1.13,1.78,3.57.72,7.27-.68,2.34-2.2,7.18-3.3,11.16,1.46-2.68,3.71-5.22,5.2-5.57a3.43,3.43,0,0,1,3.8,4.24c-.48,2.46-1.79,6.8-2.07,9.66-.32,3.17.76,5.3,2.56,4.56,2-.81,3.62-5.14,4.24-8.7a.53.53,0,0,1,.55-.51.62.62,0,0,1,.36.16c.43.43.74,1.45.43,3.13C903.57,401.63,901.32,405,898.41,406Z" transform="translate(-733.33 -300.75)" style="fill:#e62144"/><path d="M907.1,403c-3.61.86-4.88-2.59-4.77-6.1a44.83,44.83,0,0,1,3.53-14.45.92.92,0,0,1,1.15-.58,1.19,1.19,0,0,1,.25.13c1.65,1.25,2,3.5.85,6.79a41.39,41.39,0,0,0-2,8.27c-.36,2.66.35,4.35,1.53,4.09,2-.45,3.78-4.64,5.45-9.6,2-5.82,2.72-9.57,4-12.09.39-.82.75-1,1.31-.62,1,.68,2,2.74,1.24,5.47-.65,2.47-2.39,6.78-2.94,9.56-.62,3.1.13,5.07,1.93,4.52,2.09-.65,3.92-4.48,5.19-8.37.16-.49.62-.63.93-.26a4.21,4.21,0,0,1,.22,3.19c-.89,3.07-3.44,6.29-6.41,7.06-3.28.84-5.14-.75-5.5-3.66C911.9,399.09,910,402.31,907.1,403Z" transform="translate(-733.33 -300.75)" style="fill:#e62144"/><path d="M937.1,378.24c1.49,1.89-.26,4.86-.87,7.71-.11.63-.29.82-1,.59-1.38-.36-2.4-1.7-2.06-4.05.27-1.88,1.52-4.29.67-4.71s-4.63,3.41-6.08,8.36c-1.79,6.13.26,10,3.29,9.41,4.3-.81,7.32-5.39,9-8.85a.54.54,0,0,1,1-.1,4.4,4.4,0,0,1-.48,3.12,13.88,13.88,0,0,1-9,7.16c-6.44,1.39-10.15-4.07-8.09-11.14,2-6.91,7.18-10.69,10.21-9.7A6.86,6.86,0,0,1,937.1,378.24Z" transform="translate(-733.33 -300.75)" style="fill:#e62144"/><path d="M952.1,372.54c2-.87,3.48-.22,4.78,1.76a4.49,4.49,0,0,1-.64,5.94,19.24,19.24,0,0,1-7,4.83c.7,4.05,2.5,6.71,4.48,6.7,2.14,0,4.65-4.12,6-7.34.28-.63.75-.71,1.07-.13a3.66,3.66,0,0,1-.41,3.09c-1.11,2.2-3.21,5.57-7.28,6-3.61.34-7-2.13-7.84-8.79-.11-.88,0-1.05.95-1.49,6.39-2.91,9.65-7.55,8.7-8.74-.68-.84-3.12-.06-5.8,2.33-3.8,3.31-5.73,8-8.22,17.77-.1.42-.49.58-.91.25-.91-.72-1.44-2.26-.95-5.43.74-4.73,7.55-22.38,12.14-29,.46-.65,1-.76,1.46-.19,1,1.41,1,3.41-1,7.29-1.16,2.19-3,5.92-4.16,8.54A13.22,13.22,0,0,1,952.1,372.54Z" transform="translate(-733.33 -300.75)" style="fill:#e62144"/><path d="M971.89,367.62c-.15-.59,0-.9.76-.87,4.16.27,7.53-1.16,11.5-.82s6.5,2.72,7.82,6.53c3.31,9.39-10.54,21.13-25.53,23.19a3.29,3.29,0,0,1-3.33-.92,12.82,12.82,0,0,1-1.9-2.55c-.79-1.48-1-2.32.66-5.46,2.4-4.55,8.41-11.79,13.43-16.26A4.36,4.36,0,0,1,971.89,367.62Zm4,8c-3.76,4-9.45,10-11.78,14.42-1.06,2-.79,2.81.91,2.51,15.52-2.87,26.32-15.1,24-20.66-1.36-3.32-6.28-1.64-10.6-1.3.11,1.3-.62,3.05-2.49,5Z" transform="translate(-733.33 -300.75)" style="fill:#e62144"/><path d="M986.84,400.36c-3.63-1.22-2.85-4.95-.84-8a46.4,46.4,0,0,1,11-10.75.94.94,0,0,1,1.32.12,1.58,1.58,0,0,1,.15.24c.77,2-.2,4.15-3,6.43a41.91,41.91,0,0,0-6.23,6.19c-1.78,2.14-2.07,4-.9,4.42,2,.71,5.85-2,10-5.44,4.9-4,7.63-6.91,10.11-8.44.79-.5,1.22-.47,1.49.17.54,1.17.23,3.48-1.9,5.48-1.93,1.81-5.83,4.65-7.84,6.78-2.24,2.38-2.66,4.52-.77,5,2.2.58,5.91-1.78,9.17-4.49.42-.34.9-.21,1,.29a4.35,4.35,0,0,1-1.56,2.91c-2.47,2.21-6.49,3.63-9.53,2.68-3.35-1.06-4.11-3.47-2.84-6.23C993.17,399.56,989.71,401.32,986.84,400.36Z" transform="translate(-733.33 -300.75)" style="fill:#e62144"/><path d="M1026.89,395.15c.3,2.48-2.91,4.12-5,6.28-.45.49-.71.55-1.26-.06-1-1.09-1.2-2.83.4-4.7,1.27-1.49,3.72-2.91,3.19-3.75-.66-1-6,.43-10,4-5,4.38-5.25,8.88-2.26,10,4.26,1.67,9.48-.67,12.89-2.77.42-.27.91-.12.91.44a4.47,4.47,0,0,1-2.15,2.47,14.61,14.61,0,0,1-12,1.29c-6.48-2.33-6.76-9.15-1.05-14.22s12.25-5.42,14.4-2.87A7,7,0,0,1,1026.89,395.15Z" transform="translate(-733.33 -300.75)" style="fill:#e62144"/><path d="M1043.49,398.5c2.33.39,3.26,1.75,3.34,4.22a4.56,4.56,0,0,1-3.86,4.84,20.71,20.71,0,0,1-9,.28c-1.61,3.94-1.47,7.27.33,8.37s6.46-1,9.46-3c.59-.39,1.07-.2,1,.48a3.6,3.6,0,0,1-2.07,2.48c-2.21,1.3-6,3.07-9.85,1.13-3.43-1.72-5.09-5.76-2.19-12.07.39-.84.55-.94,1.67-.78,7.34,1,12.84-1.21,12.64-2.78-.15-1.12-2.78-1.8-6.5-1.22-5.24.79-9.56,3.85-17.15,11-.32.32-.76.25-.95-.28-.42-1.13,0-2.78,2.15-5.29,3.26-3.73,19.07-15.41,26.82-18.58.78-.31,1.36-.08,1.42.64.14,1.81-.93,3.58-4.89,5.85-2.25,1.27-5.92,3.53-8.44,5.15A14,14,0,0,1,1043.49,398.5Z" transform="translate(-733.33 -300.75)" style="fill:#e62144"/><path d="M922.3,402.3c-.12-.37-.09-.62.41-.63,2.46,0,5.89-.69,8-.77,2.31-.08,3.21.89,3.51,2.11.1.37,0,.63-.49.6-3.34-.18-5.87.66-8,.7S922.67,403.54,922.3,402.3Z" transform="translate(-733.33 -300.75)" style="fill:#231f20;stroke:#fff;stroke-miterlimit:10;stroke-width:2px"/><path d="M961.74,401.83c-.06-.38,0-.62.51-.55,2.43.38,5.93.25,8,.51,2.3.28,3,1.38,3.14,2.63,0,.39-.08.63-.58.52-3.27-.71-5.9-.27-8-.57S961.91,403.15,961.74,401.83Z" transform="translate(-733.33 -300.75)" style="fill:#231f20;stroke:#fff;stroke-miterlimit:10;stroke-width:2px"/><path d="M943.45,404a53,53,0,0,0-3.35,6.09.44.44,0,0,1-.56.28.43.43,0,0,1-.23-.19c-.53-.67-.73-1.94.18-4.32a21.77,21.77,0,0,1,1.2-2.42,3.11,3.11,0,0,1-1.51-1.42c-.23-.55-.14-.72.54-.64s1.32.16,2,.2c3.56-5.75,10.47-13.93,15.95-17.24.83-.49,1.32-.46,1.77.17a5.78,5.78,0,0,1,1,1.82,3.69,3.69,0,0,1-.25,3.08,68.53,68.53,0,0,0-4.34,12,2.69,2.69,0,0,1,1.88,2.3c.06.39-.13.48-.52.34a9.74,9.74,0,0,0-1.92-.38,54.87,54.87,0,0,0-1.1,6.71c0,.41-.29.53-.68.34-.85-.43-1.51-1.55-1.42-3.93a31.3,31.3,0,0,1,.35-3.2C949.23,403.6,945.57,404,943.45,404Zm9.5-3a53.6,53.6,0,0,1,4.27-12.79,77,77,0,0,0-12,13.24c2.77-.13,5.58-.48,7.73-.41Z" transform="translate(-733.33 -300.75)" style="fill:#231f20;stroke:#fff;stroke-miterlimit:10;stroke-width:2px"/><path d="M922.39,402.3c-.12-.37-.08-.62.42-.63,2.46,0,5.88-.69,8-.77,2.31-.08,3.21.89,3.51,2.11.1.37,0,.63-.49.6-3.34-.18-5.86.66-8,.7S922.76,403.54,922.39,402.3Z" transform="translate(-733.33 -300.75)" style="fill:#231f20"/><path d="M961.84,401.83c-.06-.38,0-.62.51-.55,2.43.38,5.92.25,8,.51,2.3.28,3,1.38,3.14,2.63,0,.39-.09.63-.58.52-3.28-.71-5.91-.27-8-.57S962,403.15,961.84,401.83Z" transform="translate(-733.33 -300.75)" style="fill:#231f20"/><path d="M943.55,404a52.41,52.41,0,0,0-3.38,6.09.44.44,0,0,1-.56.28.43.43,0,0,1-.23-.19c-.53-.67-.74-1.94.18-4.32a20.09,20.09,0,0,1,1.19-2.42,3.15,3.15,0,0,1-1.51-1.42c-.23-.55-.14-.72.55-.64s1.32.16,2.05.2c3.56-5.75,10.47-13.93,15.95-17.24.82-.49,1.32-.46,1.76.17a5.41,5.41,0,0,1,1,1.82,3.62,3.62,0,0,1-.25,3.08,68.53,68.53,0,0,0-4.34,12,2.68,2.68,0,0,1,1.89,2.3c.06.39-.14.48-.53.34a9.6,9.6,0,0,0-1.92-.38,54.83,54.83,0,0,0-1.09,6.71c0,.41-.3.53-.68.34-.85-.43-1.52-1.55-1.42-3.93a26.51,26.51,0,0,1,.34-3.2C949.33,403.6,945.66,404,943.55,404Zm9.49-3a53.62,53.62,0,0,1,4.28-12.79,77,77,0,0,0-12,13.24c2.78-.13,5.57-.48,7.72-.41Z" transform="translate(-733.33 -300.75)" style="fill:#231f20"/><path d="M743.74,748.86H1157V660s-105.66,11.75-208.34,11c-105.21-.76-204.91-11-204.91-11Z" transform="translate(-733.33 -300.75)" style="fill:#f8a231;stroke:#46121a;stroke-miterlimit:10"/><path d="M749,683.15s103.75,7.58,199.73,7.58c85.29,0,203-7.58,203-7.58V665.59s-103,9.89-203,9.27c-102.54-.64-199.7-9.27-199.7-9.27Z" transform="translate(-733.33 -300.75)" style="fill:#8b3691"/><rect x="145.13" y="396.7" width="143.82" height="47.87" style="stroke:#444545;stroke-miterlimit:10;stroke-width:2px;fill:url(#linear-gradient-2)"/><rect x="145.13" y="398.55" width="143.82" height="47.87" style="opacity:0.20000000298023224;isolation:isolate;fill:url(#radial-gradient-2)"/><g style="opacity:0.5"><rect x="147.45" y="398.34" width="33.59" height="44.29" style="fill:#f8a231"/><rect x="182.76" y="398.34" width="33.59" height="44.29" style="fill:#f8a231"/><rect x="217.72" y="398.34" width="33.59" height="44.29" style="fill:#f8a231"/><rect x="253.03" y="398.34" width="33.59" height="44.29" style="fill:#f8a231"/></g><g style="isolation:isolate"><text transform="translate(46.04 429.13)" style="isolation:isolate;font-size:44px;fill:#231f20;font-family:SignPainter-HouseScript, SignPainter;letter-spacing:-0.018998579545454544em">S</text><text transform="translate(64.7 429.13)" style="isolation:isolate;font-size:44px;fill:#231f20;font-family:SignPainter-HouseScript, SignPainter">core:</text></g><path d="M1092.52,739c-.48,0-.64.11-.33.19a7.91,7.91,0,0,0-1.24.09c-.24.09.27.18.27.18a14.49,14.49,0,0,1-3.64-.53c-.21-.06.85-.15,1.12-.15s1.14.11,1.42.12a12.76,12.76,0,0,0,1.64,0,2.08,2.08,0,0,1,.61,0A.14.14,0,0,1,1092.52,739Zm-12.69,1.19H1076c-.27,0-1.12.1-.91.15a10,10,0,0,0,3.49.4s-.43-.1-.24-.19,1.36-.11,1.14-.13c-.38,0-.2-.19.28-.24C1079.71,740.21,1080,740.15,1079.83,740.15Zm3-2a28.67,28.67,0,0,1,3.07-.26,3.26,3.26,0,0,1,1.64.67,4.18,4.18,0,0,1-1,0h-1c-.24,0-.19.12.35.18s1,.07,1.51.16c.31,0,3,.46,3.4.49s.72-.09.52-.14,0,0-.38,0a18.63,18.63,0,0,1-2.57-.33c-.18-.06.14,0,.53,0s2.45.22,3,.22.62-.06.41-.11,0,0-.37,0-2.5-.15-2.77-.18-.31-.18.13-.11,2.68.13,3.14.16,0-.17-.21-.1a27.7,27.7,0,0,1-3.28-.26c-.7-.1-2.93-.84-3.07-.88a3.17,3.17,0,0,0-.87,0c-.37,0,.49.11-.11.12s-2.67.22-3,.24-.32.1-.32.1a2.79,2.79,0,0,0,1.22,0Zm-10,1.58a2.72,2.72,0,0,0,.58.37,13.88,13.88,0,0,0-1.58,0c-.16,0,0,.06.17.09s2.53.25,3,.28,2.07.31,3,.34.68-.1.68-.1h-.56a19,19,0,0,1-2.12-.31c-.29,0-.12,0,.41-.06a19.57,19.57,0,0,1,2.28.12c.19,0,1.06,0,.91-.08s-.25,0-.63,0a15.34,15.34,0,0,1-2.21-.13c.06,0,3.43,0,3.33-.11s-.38,0-.77,0-4.78,0-5.14-.11-.93-.29-.58-.28,0-.07,0-.12-.49,0-.42-.08-.83-.71-.94-.76a1.61,1.61,0,0,0-.72-.12c-.52,0-.53.07-.53.07a19.85,19.85,0,0,1,1.8,1Zm6.59-4.67c-1.5-.21-4-.41-5.72-.52-2.13-.12-4.87-.15-7-.11-1.83,0-2.07.14-3.83.15a12.77,12.77,0,0,0-5.4.85c-.68.42-.58.91.44,1.42a14,14,0,0,0,3.22,1,50.93,50.93,0,0,0,5.36.8c1.51.15,3.12.26,4.76.33s3.1.08,4.63,0a41.3,41.3,0,0,0,4.73-.29,17.38,17.38,0,0,0,2.67-.48c1.07-.28,1.67-.63,1.73-1s-.24-.59-.88-.91a15.6,15.6,0,0,0-4.75-1.21Zm-7.06-.29a9.41,9.41,0,0,0,1.3-.15c.46-.08,1.78-.12,2.41-.15s.29-.24.23-.29a7.56,7.56,0,0,0-.83-.14h-1c-.41,0-.35.18-.13.13h.28a2.2,2.2,0,0,1,.92.11c.28.11,0,0,0,.1s-.2,0-.93.08-3.62.26-3.62.26.9.09,1.33.08Zm-4.13-1.76s1.23.26,1.24.42a.87.87,0,0,0,.22.58c.15.12.54.27.08.36s-.88.14-.8.25a4.77,4.77,0,0,0,1.55.13h1.24a3.12,3.12,0,0,1-.66-.26c-.28-.09-.4-.29-.33-.42s.1-.19-.17-.33a6.67,6.67,0,0,0-.71-.35,5.21,5.21,0,0,0-1.7-.35Zm-1.16,1.57h-2.79a26.17,26.17,0,0,0-2.8.06c-1.19.08-.82.06-1.9.15a17.23,17.23,0,0,0-2.48.36l1.14-.11c.16,0,.86-.07,1.47-.12s1.47-.15,2.06-.15h1.2c.65,0,4.06-.16,4.06-.16Zm3.69.09c-.25,0-.51-.13-.38-.19a11,11,0,0,1,1.52-.14c.38,0,.3-.28.34-.23a3.62,3.62,0,0,1-1.42.26h-1.58a3.85,3.85,0,0,0-1.16.27c.64.09,2.9.07,2.64.06Zm-2.76,0s.85-.12,0-.18-2.19-.11-2.48-.1-1.76.09-1.9.12,1.26,0,1.58,0a4.37,4.37,0,0,1,.88.08c.22.07.25.12.25.12a9.86,9.86,0,0,0,1.63,0Zm2.52.08s-1-.27-1.34-.41a10.33,10.33,0,0,1-1.32-.69c-.07-.06.31-.1.15-.15a5.31,5.31,0,0,0-1.26,0l.25.13c.1,0,.07,0-.08.16s.88.86.88.86a25.58,25.58,0,0,0,2.68.13Zm6,2.73a30.32,30.32,0,0,0,3.93.16c.55,0,.55-.1.56-.25s.3-.27,1.59-.46,5.3-.16,5.74-.16.64-.21.53-.29a2,2,0,0,0-.84,0,15.39,15.39,0,0,1-2.25.08c-1.41,0-4.19-.34-6.09-.36s-5.18.3-5.18.3c-2,.41.7.82,2,1Z" transform="translate(-733.33 -300.75)" style="opacity:0.09000000357627869;isolation:isolate"/><path d="M1097.77,734.15c-.66.23-1,.54-.81,1.08.08.26-1.22-.08-1.66.41a1,1,0,0,0-.09,1.07s-1.74.08-3-3.62c-.12-.36,1.32-.8,1.64-.77s1,.85,1.36.91a13.8,13.8,0,0,0,1.78.49c.17-.06.54.1.72,0S1097.77,734.15,1097.77,734.15Z" transform="translate(-733.33 -300.75)" style="fill:#9a5431"/><path d="M1080.1,740c-.67.23-1.21,1.07-.87,1.4s-1.21.21-1.64.7a1.26,1.26,0,0,0-.16,1.16s-1.88.87-3.11-2.82c-.12-.36,1.07-.82,1.39-.79s1.43.07,1.74.13a12.35,12.35,0,0,0,2.1.21c.17-.06.59-.16.78-.22S1080.1,740,1080.1,740Z" transform="translate(-733.33 -300.75)" style="fill:#9a5431"/><path d="M1087,728a.84.84,0,0,1,.58-.53,26,26,0,0,1,4.06-1.13c.7.06,0-.65.41-.71s.87,0,.93.29.93,5,1.51,5.65,2.73,2.38,3.2,2,.46.89,0,.65-2.91-.89-3.26-1.36-.64.41-.4.65a8.54,8.54,0,0,0,2.78,1.43c.47-.06.35-.42.47-.06s-.12.71-.76.65-2.55-1.51-3-1.68-.7-.43-.64,0,1.79,2.26,2.24,2.26.35-.3.46,0-.52,1-.92.77a30.06,30.06,0,0,1-2.79-3.37c-.38-.61-.88-.73-1.37-1.15s-.39-.86,0-1.08.72,0,1.2,0,1,.25,1.15,0,.47-3.93-.34-4.19-3.59.87-4.15,1.16S1087.62,728.82,1087,728Z" transform="translate(-733.33 -300.75)" style="fill:#ca6731"/><path d="M1073.16,730.54a.62.62,0,0,1,.78-.35.67.67,0,0,1,.56.75.43.43,0,0,1,0,0,26.16,26.16,0,0,1-.66,4.66c-.32.6.39.24.29.54s.08.83-.29.71-.27,1.31,0,1.78,5.16,1.43,5.7,1.25,1.07-.67.92,0-3.9,0-4.12.28,1.35.65,2.26,1.06c.39.17.71,0,.71.1,0,.47-1,.47-1.23.38a10,10,0,0,0-2.36-1c-.64,0-.87.06-.64.36s1.36,2.17,1.76,2.08a1.94,1.94,0,0,1,.68,0s-.06.79-1,.49-2.17-2.13-2.64-2.37a22.61,22.61,0,0,1-2.78-2.08c-.19-.21-.23-.45,0-.54a3.08,3.08,0,0,1,1.85.12,12.3,12.3,0,0,1,.18-2.26C1073.27,736,1073.16,730.54,1073.16,730.54Z" transform="translate(-733.33 -300.75)" style="fill:#ca6731"/><path d="M1094,717.48a14.48,14.48,0,0,1-1.11,5.59,15.17,15.17,0,0,1-4.34,5.86,15.51,15.51,0,0,1-4.17,2.5,16.44,16.44,0,0,1-11.4.33,15.56,15.56,0,0,1-4.74-2.56,15.33,15.33,0,0,1-4.35-5.4,14.62,14.62,0,0,1,1.34-14.9c1.68-2.34,4.93-4.7,8.23-4.47,2.06.14,2.57-.4,4.77-.4a20.24,20.24,0,0,1,7.84,1.49,18.8,18.8,0,0,1,5.43,3.78C1093.41,711.46,1094,714.47,1094,717.48Z" transform="translate(-733.33 -300.75)" style="fill:#b0222e"/><path d="M1082.71,705.82s3.78-.8,4.77-1.08,1,.18,1.27-.41.29.12.24-.59-.41-1-.82-.77-.06-.06-.4.18-.06-.82.46-.8a3,3,0,0,1,1.1.35s.7.62.64,1-.11,1.58-.93,1.7a11.5,11.5,0,0,0-3.13.61,4.37,4.37,0,0,1-1.86.74C1083.53,706.71,1083,705.7,1082.71,705.82Z" transform="translate(-733.33 -300.75)" style="fill:#358845"/><path d="M1083.35,695.66s.81,1.71.47,2.66a27.61,27.61,0,0,0-1.11,3.52c-.11.77,0,1.67-.75,2.2s-1.32.7-1.48,1.36.79,1,1.48,1,1.7.21,1.49,0,0-1.07-.16-1.64a5.62,5.62,0,0,1,.61-2.6,3.7,3.7,0,0,0,.55-2c0-.84.06-1.49,0-2.2S1084.22,696,1083.35,695.66Z" transform="translate(-733.33 -300.75)" style="fill:#358845"/><path d="M1079.69,704.3l-1.37-.62-1.57-.72c-1.66-.76-1.62-.88-3.23-1s-1.14,0-2.65-.08-3.3-.11-3.73.32h1.64a7.05,7.05,0,0,1,2,.07,11.6,11.6,0,0,1,2.82.16c.64.27.68.13,1.38.43S1079.69,704.3,1079.69,704.3Z" transform="translate(-733.33 -300.75)" style="fill:#358845"/><path d="M1079.4,705.41s1.39-1.54,2-1.48a6.85,6.85,0,0,0,1.8.24,3.73,3.73,0,0,0,2.26-1.43c.06-.3-.46,1.31-.93,1.34a4.57,4.57,0,0,0-2.09.68c-.29.36-.28,1.13,0,1.19A7.9,7.9,0,0,1,1079.4,705.41Z" transform="translate(-733.33 -300.75)" style="fill:#42b34f"/><path d="M1079.23,705.62s1.27-.66.46-1.07a8.06,8.06,0,0,0-2.65-.89,13.7,13.7,0,0,0-2.46.47c-.23.18,1.51,0,1.86.12s.71.17.82.59a1.47,1.47,0,0,1,0,.78S1078.61,706.08,1079.23,705.62Z" transform="translate(-733.33 -300.75)" style="fill:#42b34f"/><path d="M1079,705.58s.58-4.69,1-5.29.47-.65.47-.95v-.77c0-.3,1.45-.36,1.51,0s-.47.54-.53.89a34,34,0,0,0,0,4.28c.11.89.58,2.64.58,2.64A9.89,9.89,0,0,1,1079,705.58Z" transform="translate(-733.33 -300.75)" style="fill:#42b34f"/><path d="M1094.1,717.71a13.85,13.85,0,0,1-1,5.25,14.45,14.45,0,0,1-4.08,5.51,15,15,0,0,1-3.92,2.35,15.51,15.51,0,0,1-10.72.32,15.13,15.13,0,0,1-4.45-2.41,14.27,14.27,0,0,1-4.1-5.08,13.78,13.78,0,0,1,1.26-14c1.59-2.2,4.63-4.42,7.74-4.2,1.94.13,2.41-.38,4.48-.38a18.86,18.86,0,0,1,7.38,1.41,17.39,17.39,0,0,1,5.1,3.55C1093.54,712,1094.1,714.88,1094.1,717.71Z" transform="translate(-733.33 -300.75)" style="fill:#ca242d"/><path d="M1082.59,717.25s4.53-1.54,6.68-1.19,4.59,2.71,6.22,2.9a5,5,0,0,0,2.79-.21c.41-.19,1-.28.93.21s-.75,1.66-1.28,1.64-5.11-.64-7,.32-2.56,1.68-2.9,2.57-.59,1.49-1.22,1.43-3.14-.12-4.19-1.43S1079.34,719.39,1082.59,717.25Z" transform="translate(-733.33 -300.75)" style="fill:#ca6731"/><path d="M1083.3,717.4s4.34-1.37,6.39-1,4.4,2.39,6,2.56a5.12,5.12,0,0,0,2.66-.18c.39-.17,1-.25.89.18s-.71,1.48-1.22,1.46-4.89-.57-6.73.28-2.45,1.49-2.78,2.28-.56,1.31-1.17,1.26-3-.11-4-1.26S1080.18,719.29,1083.3,717.4Z" transform="translate(-733.33 -300.75)" style="fill:#f7ce32"/><path d="M1085.56,719.28s-.88-1.28-1.46-1-.46.46,0,.71A4.86,4.86,0,0,0,1085.56,719.28Z" transform="translate(-733.33 -300.75)" style="fill:#ca6731"/><path d="M1090.1,717.15c-.66-.18-1.36-.35-1.18,0s1.68,1,1.57.74S1090.1,717.15,1090.1,717.15Z" transform="translate(-733.33 -300.75)" style="fill:#ca6731"/><ellipse cx="345.02" cy="412.5" rx="1.59" ry="2.37"/><ellipse cx="346" cy="411.36" rx="0.6" ry="0.88" style="fill:#fff"/><ellipse cx="345.17" cy="412.85" rx="0.41" ry="0.61" style="fill:#fff"/><ellipse cx="358.18" cy="412.5" rx="1.07" ry="1.91"/><ellipse cx="358.84" cy="411.58" rx="0.41" ry="0.71" style="fill:#fff"/><ellipse cx="358.28" cy="412.78" rx="0.27" ry="0.49" style="fill:#fff"/><circle cx="380.55" cy="408.68" r="12.37" style="fill:#a01f2e"/><circle cx="380.55" cy="408.68" r="10.15" style="fill:#fff"/><circle cx="380.55" cy="408.68" r="8.09" style="fill:#a01f2e"/><circle cx="380.55" cy="408.68" r="5.46" style="fill:#fff"/><circle cx="380.55" cy="408.68" r="3.22" style="fill:#a01f2e"/><rect x="18.64" y="223.7" width="406.21" height="3.83" style="fill:#fcbb49"/><rect x="19.2" y="227.29" width="406.21" height="3.83" style="fill:#b97733"/><rect x="20.69" y="279.7" width="406.21" height="3.83" style="fill:#fcbb49"/><rect x="21.25" y="283.3" width="406.21" height="3.83" style="fill:#b97733"/><rect x="19.65" y="337.31" width="406.21" height="3.83" style="fill:#fcbb49"/><rect x="20.21" y="340.9" width="406.21" height="3.83" style="fill:#b97733"/></svg>