<svg xmlns="http://www.w3.org/2000/svg" viewBox="0 0 59.87 51.52"><title>duckArtboard 1</title><g style="isolation:isolate"><g id="Layer_1" data-name="Layer 1"><path d="M40.06,30.52a17.46,17.46,0,0,1-1.33,6.71,18.15,18.15,0,0,1-5.21,7,19.14,19.14,0,0,1-5,3,19.8,19.8,0,0,1-13.69.4,19.36,19.36,0,0,1-5.7-3.07,18.42,18.42,0,0,1-5.23-6.5c-1.11-2.31-3-7-3.31-9.71-.42-3.83-1.35-10.69.76-13.62,0,0-1.34,6.7,10.89.92a21.22,21.22,0,0,1,10-1.71,26.43,26.43,0,0,1,8.29,2.16,22.23,22.23,0,0,1,6.52,4.54C39.31,23.28,40.06,26.9,40.06,30.52Z" style="fill:#cc6728"/><path d="M40.17,30.79a16.49,16.49,0,0,1-1.25,6.32A17.12,17.12,0,0,1,34,43.72a18.27,18.27,0,0,1-4.72,2.83,18.71,18.71,0,0,1-12.87.38A17.87,17.87,0,0,1,11.08,44a26.57,26.57,0,0,1-4.91-5.35A20.93,20.93,0,0,1,2.63,30.3a91.14,91.14,0,0,1-1.3-11.58S2.09,21.4,12,18A52.44,52.44,0,0,1,21.1,15.7a21.72,21.72,0,0,1,10.12,1.58,20.87,20.87,0,0,1,6.13,4.27C39.46,24,40.17,27.39,40.17,30.79Z" style="fill:#f8d00c"/><path d="M49.51,20.24a9.93,9.93,0,0,1-.83,4,10.86,10.86,0,0,1-3.27,4.17,12,12,0,0,1-3.14,1.79,13,13,0,0,1-8.57.24,12.13,12.13,0,0,1-3.56-1.83,10.89,10.89,0,0,1-3.27-3.85,9.87,9.87,0,0,1-1.08-4.51,10.13,10.13,0,0,1,2.08-6.12c1.27-1.68,3.71-3.36,6.19-3.2,1.56.11,1.93-.28,3.59-.28a15.86,15.86,0,0,1,5.9,1.07,13.72,13.72,0,0,1,4.08,2.69A8.49,8.49,0,0,1,49.51,20.24Z" style="opacity:0.2;mix-blend-mode:multiply"/><path d="M52.5,17.56a11.66,11.66,0,0,1-.9,4.5,12.11,12.11,0,0,1-3.49,4.71,12.49,12.49,0,0,1-3.36,2,13.25,13.25,0,0,1-9.17.27A12.65,12.65,0,0,1,31.77,27a12.29,12.29,0,0,1-3.5-4.34,11.75,11.75,0,0,1,1.08-12c1.35-1.89,4-3.79,6.62-3.6,1.66.11,2.06-.33,3.83-.33a16.25,16.25,0,0,1,6.32,1.21,14.7,14.7,0,0,1,4.37,3A10,10,0,0,1,52.5,17.56Z" style="fill:#cc6728"/><path d="M52.57,17.74A11,11,0,0,1,51.73,22a11.5,11.5,0,0,1-3.28,4.43,12,12,0,0,1-3.16,1.89,12.39,12.39,0,0,1-8.62.26,12.21,12.21,0,0,1-3.59-1.94,11.57,11.57,0,0,1-3.29-4.09,11,11,0,0,1,1-11.27C32.08,9.48,34.53,7.69,37,7.87c1.56.11,1.94-.31,3.61-.31A15.07,15.07,0,0,1,46.57,8.7a13.8,13.8,0,0,1,4.11,2.85A9.36,9.36,0,0,1,52.57,17.74Z" style="fill:#f8d00c"/><path d="M43.9,0a3.73,3.73,0,0,1,.37,2.15A21.4,21.4,0,0,0,43.38,5c-.09.62,0,1.35-.6,1.78s-1.06.55-1.2,1.09.64.8,1.2.79,1.37.16,1.2,0,0-.86-.13-1.32a4.28,4.28,0,0,1,.49-2.1,3,3,0,0,0,.44-1.58c0-.67,0-1.19,0-1.77S44.6.29,43.9,0Z" style="fill:#318942"/><path d="M41,7s-.44-.19-1.1-.5l-1.27-.58A5.23,5.23,0,0,0,36,5.07,19.47,19.47,0,0,0,33.86,5c-1.22,0-2.66-.09-3,.25h1.32a5.61,5.61,0,0,1,1.64.06,9.11,9.11,0,0,1,2.27.13c.51.22.55.11,1.11.34S41,7,41,7Z" style="fill:#318942"/><path d="M40.58,8s1-.52.37-.86a7,7,0,0,0-2.13-.72,11.2,11.2,0,0,0-2,.39c-.19.14,1.21,0,1.49.09s.58.14.66.48A1.21,1.21,0,0,1,39,8S40.08,8.39,40.58,8Z" style="fill:#3cb54a"/><path d="M40.39,8a27.36,27.36,0,0,1,.79-4.26c.33-.48.38-.53.38-.77V2.34c0-.24,1.17-.28,1.21,0s-.37.43-.42.72a27,27,0,0,0,0,3.44c.09.72.47,2.13.47,2.13A8.13,8.13,0,0,1,40.39,8Z" style="fill:#3cb54a"/><ellipse cx="39.87" cy="16.02" rx="2.53" ry="3.78"/><ellipse cx="41.42" cy="14.21" rx="0.96" ry="1.4" style="fill:#fff"/><ellipse cx="40.11" cy="16.58" rx="0.65" ry="0.98" style="fill:#fff"/><path d="M43.38,8.18s3-.65,3.83-.87.85.15,1-.33.24.1.19-.48-.33-.76-.65-.62-.05,0-.33.15-.05-.66.37-.64a2.26,2.26,0,0,1,.89.28s.56.5.51.76-.09,1.27-.74,1.36a9.47,9.47,0,0,0-2.53.5,3.62,3.62,0,0,1-1.49.59C44,8.89,43.61,8.08,43.38,8.18Z" style="fill:#318942"/><path d="M40.72,7.85s1.12-1.24,1.59-1.2a5.34,5.34,0,0,0,1.44.19A3,3,0,0,0,45.58,5.7c0-.24-.38,1-.75,1.07a3.76,3.76,0,0,0-1.68.55c-.24.29-.23.91,0,1A6.54,6.54,0,0,1,40.72,7.85Z" style="fill:#3cb54a"/><path d="M38.26,36.7a18.82,18.82,0,0,1-1.92,3.56A12.14,12.14,0,0,1,32.11,44a17.29,17.29,0,0,1-3.83,1.52,21.19,21.19,0,0,1-5.64.74,22,22,0,0,1-4.81-.53,17.93,17.93,0,0,1-4.34-1.56,19.42,19.42,0,0,1-4-2.9,21.77,21.77,0,0,1-4.37-6.65,23.3,23.3,0,0,1-1.42-5.86s3.08,5,11.06,8.52c3.41,1.52,10.1,1,12.15.66,8.68-1.56,12.3-4.65,12.3-4.65S38.75,35.13,38.26,36.7Z" style="opacity:0.2;mix-blend-mode:multiply"/><path d="M46.5,19s3.65-1.24,5.38-.95,3.69,2.18,5,2.33a4.18,4.18,0,0,0,2.25-.17c.32-.15.79-.22.74.17s-.6,1.34-1,1.32-4.12-.52-5.66.26S51.13,23.29,50.85,24s-.47,1.2-1,1.15S47.35,25.06,46.5,24,43.89,20.71,46.5,19Z" style="fill:#cc6728"/><path d="M47.07,19.1s3.49-1.1,5.15-.84,3.53,1.93,4.79,2.06a4.07,4.07,0,0,0,2.14-.15c.32-.13.77-.2.72.15s-.58,1.19-1,1.17S55,21,53.47,21.72s-2,1.19-2.24,1.83-.44,1.06-.94,1-2.41-.09-3.22-1S44.56,20.63,47.07,19.1Z" style="fill:#f8d00c"/><path d="M48.89,20.62s-.7-1-1.17-.83-.37.37,0,.57A3.92,3.92,0,0,0,48.89,20.62Z" style="fill:#cc6728"/><path d="M52.5,18.89c-.53-.15-1.09-.29-1,0s1.36.81,1.26.6A6.74,6.74,0,0,0,52.5,18.89Z" style="fill:#cc6728"/><ellipse cx="50.46" cy="14.16" rx="0.86" ry="1.54"/><ellipse cx="50.99" cy="13.42" rx="0.33" ry="0.57" style="fill:#fff"/><ellipse cx="50.54" cy="14.38" rx="0.22" ry="0.4" style="fill:#fff"/><path d="M25.44,30.72a6.3,6.3,0,0,0-5.15-3.9c-4.14-.36-12.94,3.45-15.51-2.25,0,0,2.13,14,8.29,15.69C21.11,42.48,27.36,38.92,25.44,30.72Z" style="opacity:0.2;mix-blend-mode:multiply"/><path d="M26.58,28.14a6.3,6.3,0,0,0-5.14-3.91C17.29,23.87,8.5,27.68,5.92,22c0,0,2.14,14,8.29,15.69C22.25,39.89,28.5,36.33,26.58,28.14Z" style="fill:#cc6728"/><path d="M24.78,28.07s-.79-1.87-4-2.36-10.34,2.51-12.68,0c0,0,3.13,10.1,8.1,10.84C23.81,37.67,27.79,33.24,24.78,28.07Z" style="fill:#f8d00c"/></g></g></svg>